<?xml version="1.0" encoding="UTF-8" standalone="no"?>
<svg width="15px" height="32px" viewBox="0 0 15 32" version="1.1" xmlns="http://www.w3.org/2000/svg" xmlns:xlink="http://www.w3.org/1999/xlink">
    <!-- Generator: Sketch 47.1 (45422) - http://www.bohemiancoding.com/sketch -->
    <title>f-2</title>
    <desc>Created with Sketch.</desc>
    <defs>
        <polygon id="path-1" points="0 38 15 38 15 0 0 0"></polygon>
    </defs>
    <g id="客服" stroke="none" stroke-width="1" fill="none" fill-rule="evenodd">
        <g id="人才招聘-copy-2" transform="translate(-1536.000000, -2063.000000)">
            <g id="f-2" transform="translate(1536.000000, 2063.000000)">
                <mask id="mask-2" fill="white">
                    <use xlink:href="#path-1"></use>
                </mask>
                <g id="Clip-2"></g>
                <path d="M10.0403738,6.5458774 C9.36618836,7.37094169 9.37384058,8.86654435 9.37384058,10.228013 L9.37384058,11.1159086 L14.6492754,11.1159086 L13.6492754,16.1724329 L9.37384058,16.1724329 L9.37384058,32 L3.51478261,32 L3.51478261,16.1724329 L0,16.1724329 L0,11.1159086 L3.51478261,11.1159086 L3.51478261,8.40148968 C3.51478261,6.70752101 3.68038613,4.75258925 4.36002381,3.48738228 C5.02241512,2.24013624 5.53246597,1.75724966 6.66090495,1.11230737 C7.78934394,0.467365077 9.19876766,0.381249867 10.8702894,0.381249867 C11.4536952,0.380952992 13.1255255,0.381249867 13.6492754,0.381249867 C14.1730252,0.381249867 14.5224891,0.381249867 14.989361,0.381249867 L14.989361,5.81051324 C14.5247014,5.81051324 13.8980435,5.80962261 13.0075362,5.81051324 C11.8971014,5.80991949 10.7145593,5.7208131 10.0403738,6.5458774 Z" id="Fill-1" fill="#ADADAD" mask="url(#mask-2)"></path>
            </g>
        </g>
    </g>
</svg>