<?xml version="1.0" encoding="UTF-8" standalone="no"?>
<svg width="26px" height="26px" viewBox="0 0 26 26" version="1.1" xmlns="http://www.w3.org/2000/svg" xmlns:xlink="http://www.w3.org/1999/xlink">
    <!-- Generator: Sketch 48.2 (47327) - http://www.bohemiancoding.com/sketch -->
    <title>二维码</title>
    <desc>Created with Sketch.</desc>
    <defs></defs>
    <g id="代驾" stroke="none" stroke-width="1" fill="none" fill-rule="evenodd" transform="translate(-1007.000000, -653.000000)">
        <g id="首屏文案" transform="translate(620.000000, 200.000000)" fill="#FFFFFF">
            <g id="二维码" transform="translate(261.000000, 448.000000)">
                <g transform="translate(126.000000, 5.000000)">
                    <g>
                        <path d="M0,25.9205732 L11.9631902,25.9205732 L11.9631902,14.0303293 L0,14.0303293 L0,25.9205732 Z M1.99386503,23.9388659 L9.96916564,23.9388659 L9.96916564,16.0120366 L1.99386503,16.0120366 L1.99386503,23.9388659 Z" id="Fill-1"></path>
                        <polygon id="Fill-2" points="3.98773006 8.08536585 7.97546012 8.08536585 7.97546012 4.12195122 3.98773006 4.12195122"></polygon>
                        <path d="M13.9570552,12.0487805 L25.9204049,12.0487805 L25.9204049,0.158378049 L13.9570552,0.158378049 L13.9570552,12.0487805 Z M15.9509202,10.0670732 L23.9263804,10.0670732 L23.9263804,2.1402439 L15.9509202,2.1402439 L15.9509202,10.0670732 Z" id="Fill-3"></path>
                        <polygon id="Fill-4" points="3.98773006 21.9573171 7.97546012 21.9573171 7.97546012 17.9939024 3.98773006 17.9939024"></polygon>
                        <polygon id="Fill-5" points="23.9263804 25.9205732 25.9202454 25.9205732 25.9202454 21.9573171 23.9263804 21.9573171"></polygon>
                        <polygon id="Fill-6" points="23.9264282 14.0303927 23.9264282 17.9938073 19.9386982 17.9938073 19.9386982 14.0303927 15.9509681 14.0303927 13.9571031 14.0303927 13.9571031 17.9938073 13.9571031 25.9206366 15.9509681 25.9206366 15.9509681 17.9938073 17.9448331 17.9938073 17.9448331 19.9755146 23.9264282 19.9755146 25.9202933 19.9755146 25.9202933 14.0303927"></polygon>
                        <path d="M0,12.0487805 L11.9631902,12.0487805 L11.9631902,0.158378049 L0,0.158378049 L0,12.0487805 Z M1.99386503,10.0670732 L9.96916564,10.0670732 L9.96916564,2.1402439 L1.99386503,2.1402439 L1.99386503,10.0670732 Z" id="Fill-7"></path>
                        <polygon id="Fill-8" points="17.9447853 8.08536585 21.9325153 8.08536585 21.9325153 4.12195122 17.9447853 4.12195122"></polygon>
                        <polygon id="Fill-9" points="19.9386503 25.9205732 21.9325153 25.9205732 21.9325153 21.9573171 19.9386503 21.9573171"></polygon>
                    </g>
                </g>
            </g>
        </g>
    </g>
</svg>