<?xml version="1.0" encoding="UTF-8" standalone="no"?>
<svg width="40px" height="32px" viewBox="0 0 40 32" version="1.1" xmlns="http://www.w3.org/2000/svg" xmlns:xlink="http://www.w3.org/1999/xlink">
    <!-- Generator: Sketch 47.1 (45422) - http://www.bohemiancoding.com/sketch -->
    <title>微信</title>
    <desc>Created with Sketch.</desc>
    <defs>
        <polygon id="path-1" points="0.00288721805 0.0320962406 0.00288721805 25.3787429 28.0118376 25.3787429 28.0118376 0.0320962406"></polygon>
    </defs>
    <g id="客服" stroke="none" stroke-width="1" fill="none" fill-rule="evenodd">
        <g id="人才招聘-copy-2" transform="translate(-1386.000000, -2063.000000)">
            <g id="微信" transform="translate(1386.000000, 2063.000000)">
                <g id="Group-3">
                    <mask id="mask-2" fill="white">
                        <use xlink:href="#path-1"></use>
                    </mask>
                    <g id="Clip-2"></g>
                    <path d="M15.2896481,0.0320962406 C16.2122105,0.200132331 17.1499789,0.310135338 18.0543038,0.546742857 C21.7216,1.50635789 24.7562105,3.39411729 26.7919398,6.68285113 C27.3684211,7.61426767 27.7742677,8.62137744 28.0118376,9.75879699 C27.1774316,9.75879699 26.371994,9.7052391 25.5755549,9.76745865 C20.3616722,10.1742195 16.0483128,13.7708271 15.0473624,18.5798256 C14.7287579,20.1104842 14.7575338,21.6332511 15.1321504,23.1505323 C15.1631398,23.2758857 15.1840241,23.4035489 15.221991,23.5913143 C14.9708511,23.6149895 14.7499789,23.6441504 14.5281925,23.6557955 C12.7919158,23.7473203 11.1105444,23.3757353 9.42123308,23.058815 C9.20113083,23.0174316 8.92857744,23.0544842 8.72685714,23.1518316 C7.40321203,23.7905805 6.09284812,24.4563729 4.7772391,25.1118195 C4.61805714,25.1909293 4.45430376,25.2610406 4.19907368,25.3787429 C4.40584662,24.7512541 4.58326617,24.2080241 4.76352481,23.6661414 C4.99286617,22.9770105 5.20979248,22.2834045 5.46223158,21.602791 C5.56674887,21.321191 5.51785865,21.1706226 5.27066466,20.9956571 C4.10490226,20.1683729 3.0592,19.2095278 2.18384361,18.0730707 C1.06278496,16.6176241 0.322165414,15.0003489 0.0870496241,13.1659549 C0.0727578947,13.0550376 0.0296902256,12.9478737 0,12.8390737 L0,10.8535338 C0.0296902256,10.743194 0.0731428571,10.6347308 0.087193985,10.5223218 C0.319566917,8.69490526 1.00374135,7.04620752 2.10319398,5.57892331 C4.08854135,2.92985263 6.7704782,1.33567519 9.94343459,0.533028571 C10.8182135,0.311819549 11.7197474,0.196186466 12.608818,0.0320962406 L15.2896481,0.0320962406 Z M11.1450947,7.65411128 C11.1379729,6.6040782 10.4488902,5.9366015 9.38552782,5.94978647 C8.23761805,5.9640782 7.33608421,6.71817143 7.33382256,7.66667068 C7.33175338,8.63509173 8.25547068,9.39996391 9.42310977,9.39659549 C10.477618,9.39356391 11.1522647,8.7108812 11.1450947,7.65411128 Z M19.1765173,9.39693233 C20.2270797,9.39678797 20.9321383,8.70202707 20.9300692,7.66854737 C20.9278075,6.63530827 20.219188,5.94415639 19.1676632,5.94997895 C18.0295218,5.95618647 17.1024361,6.71518797 17.0881444,7.65242707 C17.0738526,8.60371729 18.0233143,9.39693233 19.1765173,9.39693233 Z" id="Fill-1" fill="#ACACAC" mask="url(#mask-2)"></path>
                </g>
                <path d="M35.4439699,31.9997594 C34.6479158,31.5426165 33.8193805,31.1324872 33.0636992,30.6157714 C32.1949353,30.0213895 31.3578827,29.9922767 30.334797,30.2242165 C25.9629714,31.2159278 21.9949233,30.2949053 18.6930526,27.2215579 C14.6434406,23.4521985 14.7007519,17.6165053 18.7058045,13.8018647 C23.937203,8.81915188 33.184385,9.49206617 37.534412,15.1755068 C38.4857023,16.418406 39.1131429,17.8046556 39.3300692,19.365197 C39.3408,19.442815 39.3862737,19.515188 39.4154346,19.5902075 L39.4154346,21.377203 C39.0906226,22.3227188 38.8544962,23.3114466 38.421606,24.2048481 C37.637582,25.8217865 36.3874165,27.0837895 34.974412,28.1689504 C34.6001805,28.4561805 34.5612992,28.6907669 34.6990677,29.1091729 C35.0129564,30.062003 35.2657805,31.0350917 35.5434346,31.9999519 C35.5103278,31.9997594 35.4770767,31.9997594 35.4439699,31.9997594 Z M25.4490466,17.4074707 C25.4507308,16.6471218 24.6710376,16.0082286 23.7544902,16.0187669 C23.0208481,16.0270436 22.3368662,16.6931729 22.3349414,17.4012632 C22.3330647,18.1093534 23.0143038,18.7787068 23.7484752,18.790015 C24.6641083,18.8043068 25.4475549,18.1676271 25.4490466,17.4074707 Z M31.4505624,18.7902075 C32.355994,18.786406 33.1563789,18.1189293 33.1379489,17.3828331 C33.1197594,16.6593444 32.3372271,16.024012 31.4571549,16.0181895 C30.7154286,16.0133293 29.9905925,16.7168962 30.0071459,17.4257083 C30.0235068,18.1253293 30.7300571,18.793191 31.4505624,18.7902075 Z" id="Fill-4" fill="#ACACAC"></path>
            </g>
        </g>
    </g>
</svg>