<?xml version="1.0" encoding="UTF-8"?>
<svg width="36px" height="40px" viewBox="0 0 36 40" version="1.1" xmlns="http://www.w3.org/2000/svg" xmlns:xlink="http://www.w3.org/1999/xlink">
    <!-- Generator: Sketch 53 (72520) - https://sketchapp.com -->
    <title>分组</title>
    <desc>Created with Sketch.</desc>
    <defs>
        <polygon id="path-1" points="0 0 36 0 36 40 0 40"></polygon>
    </defs>
    <g id="Page-1" stroke="none" stroke-width="1" fill="none" fill-rule="evenodd">
        <g id="首页1-copy-5" transform="translate(-732.000000, -628.000000)">
            <g id="分组" transform="translate(732.000000, 628.000000)">
                <mask id="mask-2" fill="white">
                    <use xlink:href="#path-1"></use>
                </mask>
                <g id="Clip-2"></g>
                <path d="M34.612045,37.1348511 L1.38795502,37.1348511 C0.620249338,37.1348511 0,37.77504 0,38.5674255 C0,39.3598111 0.620249338,40 1.38795502,40 L34.612045,40 C35.3797507,40 36,39.3598111 36,38.5674255 C36,37.77504 35.3797507,37.1348511 34.612045,37.1348511 L34.612045,37.1348511 Z M5.39992227,18.5427853 C5.39992227,18.5427853 5.41302457,18.5384302 5.43034625,18.5384302 L10.9604032,18.5384302 C12.5175777,18.5384302 13.7882783,17.2312347 13.7882783,15.6194165 L13.7882783,2.91878449 C13.7882783,2.88738246 13.8100414,2.8651489 13.8404654,2.8651489 L22.0771456,2.8651489 C22.1073475,2.8651489 22.1291107,2.88738246 22.1291107,2.91878449 L22.1291107,15.6194165 C22.1291107,17.2266505 23.3955919,18.5384302 24.9569857,18.5384302 L30.5738731,18.5384302 C30.5914169,18.5384302 30.6000777,18.5427853 30.6000777,18.5427853 C30.6129579,18.5517245 30.6302796,18.5920658 30.6260602,18.6099444 C30.6260602,18.6099444 30.6216188,18.6188836 30.6087386,18.6324071 L18.0347544,31.6060306 C18.0129913,31.6284933 17.9825673,31.6284933 17.9610262,31.6060306 L5.39126144,18.6278229 C5.37815914,18.6145286 5.37393976,18.6055893 5.37393976,18.6055893 C5.3694983,18.5920658 5.38681998,18.5517245 5.39992227,18.5427853 L5.39992227,18.5427853 Z M16.0003454,33.6295133 C16.5339864,34.1800803 17.2452856,34.4844738 17.999889,34.4844738 C18.7547144,34.4844738 19.4660136,34.1800803 19.9994325,33.6295133 L32.5691973,20.6556607 C33.3802071,19.818808 33.6231548,18.5696031 33.1807858,17.4774083 C32.7426361,16.3849843 31.7146611,15.6776364 30.5696538,15.6776364 L24.9527663,15.6776364 C24.9223424,15.6776364 24.9008013,15.6554028 24.9008013,15.6240008 L24.9008013,2.91878449 C24.9008013,1.31155056 23.634098,0 22.0727042,0 L13.8404654,0 C12.2832909,0 11.0123682,1.30719553 11.0123682,2.91878449 L11.0123682,15.6194165 C11.0123682,15.6508186 10.9908272,15.6732813 10.9604032,15.6732813 L5.43034625,15.6732813 C4.28089742,15.6732813 3.25736387,16.3806293 2.81921423,17.4728241 C2.38106459,18.565248 2.61979286,19.8142237 3.43080273,20.6513056 L16.0003454,33.6295133 Z" id="Fill-1" fill="#FFFFFF" mask="url(#mask-2)"></path>
            </g>
        </g>
    </g>
</svg>