<?xml version="1.0" encoding="UTF-8" standalone="no"?>
<svg width="107px" height="107px" viewBox="0 0 107 107" version="1.1" xmlns="http://www.w3.org/2000/svg" xmlns:xlink="http://www.w3.org/1999/xlink">
    <!-- Generator: Sketch 48.1 (47250) - http://www.bohemiancoding.com/sketch -->
    <title>人工智能算法</title>
    <desc>Created with Sketch.</desc>
    <defs></defs>
    <g id="滴滴大脑" stroke="none" stroke-width="1" fill="none" fill-rule="evenodd" transform="translate(-1129.000000, -3194.000000)">
        <g id="Group-10" transform="translate(979.000000, 3147.000000)" stroke="#333333">
            <g id="人工智能算法" transform="translate(151.000000, 48.000000)">
                <g id="数据-copy-2" stroke-width="2">
                    <circle id="Oval-2" cx="52.5" cy="52.5" r="52.5"></circle>
                </g>
                <g id="Page-1" transform="translate(29.000000, 33.000000)" stroke-width="3">
                    <path d="M48.229466,2.76184212 C51.9235113,6.44429829 51.9235113,12.4151574 48.229466,16.0981579 C44.5354207,19.780614 38.5457705,19.780614 34.8511792,16.0981579 C31.1571338,12.4151574 31.1571338,6.44429829 34.8511792,2.76184212 C38.5457705,-0.920614041 44.5354207,-0.920614041 48.229466,2.76184212 Z" id="Stroke-1"></path>
                    <path d="M21.1046971,30.5014191 C23.6747784,32.9033113 23.6747784,36.7972024 21.1046971,39.1985809 C18.5346157,41.600473 14.3680603,41.600473 11.7985287,39.1985809 C9.22844741,36.7972024 9.22844741,32.9033113 11.7985287,30.5014191 C14.3680603,28.099527 18.5346157,28.099527 21.1046971,30.5014191 Z" id="Stroke-3"></path>
                    <path d="M33.7258065,15.58 L19.7419355,29.52" id="Stroke-5"></path>
                    <path d="M16.4516129,9.02 C16.4516129,13.5484608 12.7689308,17.22 8.22554113,17.22 C3.68268211,17.22 0,13.5484608 0,9.02 C0,4.49153916 3.68268211,0.82 8.22554113,0.82 C12.7689308,0.82 16.4516129,4.49153916 16.4516129,9.02 Z" id="Stroke-7"></path>
                    <path d="M10.6935484,18.04 L13.1612903,28.7" id="Stroke-9"></path>
                </g>
            </g>
        </g>
    </g>
</svg>