<?xml version="1.0" encoding="UTF-8" standalone="no"?>
<svg width="29px" height="28px" viewBox="0 0 29 28" version="1.1" xmlns="http://www.w3.org/2000/svg" xmlns:xlink="http://www.w3.org/1999/xlink">
    <!-- Generator: Sketch 47.1 (45422) - http://www.bohemiancoding.com/sketch -->
    <title>in</title>
    <desc>Created with Sketch.</desc>
    <defs>
        <polygon id="path-1" points="7.0169494e-19 0 0 28 29 28 29 0"></polygon>
    </defs>
    <g id="客服" stroke="none" stroke-width="1" fill="none" fill-rule="evenodd">
        <g id="人才招聘-copy-2" transform="translate(-1604.000000, -2065.000000)">
            <g id="in" transform="translate(1604.000000, 2065.000000)">
                <mask id="mask-2" fill="white">
                    <use xlink:href="#path-1"></use>
                </mask>
                <g id="Clip-2"></g>
                <path d="M16.3203803,28 L10.0630701,28 L10.0630701,9.19656703 L16.3203803,9.19656703 L16.3203803,11.6630715 C16.7084034,11.2053273 16.9837137,10.8621219 17.271529,10.5441869 C18.412004,9.33983467 19.9943306,8.67198283 21.6390806,8.70074593 C23.3810049,8.5714147 25.1077615,9.10630568 26.4823582,10.2009472 C27.3248725,10.931393 27.9635668,11.8741379 28.3344673,12.9344007 C28.8001489,14.2065858 29.0251699,15.5567395 28.997767,16.9136731 L28.997767,28 L22.8280248,28 L22.8280248,17.8291273 C22.8517201,16.8569687 22.632092,15.8946033 22.1898361,15.0321211 C21.7545572,14.2655502 20.958119,13.7839052 20.0872916,13.7607577 C19.1891962,13.624989 18.2770453,13.8890275 17.584354,14.4854509 C16.8198016,15.1050219 16.362142,16.0348919 16.3328852,17.0281777 L16.3328852,27.3007142 L16.3203803,28 Z M0.451847683,28 L6.63399365,28 L6.63399365,9.19656703 L0.451847683,9.19656703 L0.451847683,28 Z M3.45538627,6.52680327 C1.95570675,6.68113101 0.565099727,5.71434836 0.163897619,4.23835607 C-0.161297537,3.25589067 0.00328869328,2.17405561 0.60551318,1.33742599 C1.20760284,0.500625166 2.17230128,0.0130905828 3.19258086,0.0300745099 C4.24457775,-0.104872378 5.30378772,0.218267379 6.10841653,0.919950107 C7.01753383,1.88515764 7.29547323,3.29722051 6.82176959,4.5434504 C6.33050514,5.78605066 5.12275298,6.58015198 3.80572608,6.52680327 L3.45538627,6.52680327 Z" id="Fill-1" fill="#ADADAD" mask="url(#mask-2)"></path>
            </g>
        </g>
    </g>
</svg>