<?xml version="1.0" encoding="UTF-8" standalone="no"?>
<svg width="36px" height="30px" viewBox="0 0 36 30" version="1.1" xmlns="http://www.w3.org/2000/svg" xmlns:xlink="http://www.w3.org/1999/xlink">
    <!-- Generator: Sketch 47.1 (45422) - http://www.bohemiancoding.com/sketch -->
    <title>Twitter</title>
    <desc>Created with Sketch.</desc>
    <defs>
        <polygon id="path-1" points="7.6073859e-19 4.15574793e-15 0 29.9454545 36 29.9454545 36 1.24672438e-14"></polygon>
    </defs>
    <g id="客服" stroke="none" stroke-width="1" fill="none" fill-rule="evenodd">
        <g id="人才招聘-copy-2" transform="translate(-1458.000000, -2063.000000)">
            <g id="Twitter" transform="translate(1458.000000, 2063.000000)">
                <mask id="mask-2" fill="white">
                    <use xlink:href="#path-1"></use>
                </mask>
                <g id="Clip-2"></g>
                <path d="M36,3.91913713 C35.4167462,5.14557197 34.4106964,6.01816075 33.3979228,6.84220536 C32.7742896,7.34910446 32.620994,7.87259924 32.5811628,8.63724304 C32.1202165,17.3841496 28.2946985,24.1344212 20.2442172,27.8845315 C13.550118,31.0023613 6.79345809,30.5117289 0.313753355,26.8928487 C0.183443028,26.8207269 0.00884326949,26.7794571 0,26.4789073 C2.63076305,26.664384 5.1820463,26.3283765 7.59110638,25.2247642 C8.5802005,24.7724042 9.55668747,24.2877667 10.5402271,23.4360139 C10.0481832,23.3387793 9.69386777,23.2768197 9.34474134,23.1958518 C6.89296314,22.6374111 5.13647788,21.2109143 4.04206846,18.950686 C3.77987649,18.4096452 3.78941406,18.1266414 4.52654808,18.189917 C5.21299774,18.2490254 5.90902152,18.2024917 6.64473038,18.0928287 C3.26141241,16.7445948 1.27869292,14.4422193 1.10855134,10.6461602 C2.17427494,10.9615876 3.07128211,11.4377811 4.2628944,11.4133628 C2.72427514,10.1071298 1.67923456,8.64835556 1.31994933,6.77267899 C0.968520722,4.94068486 1.18649635,3.21089669 2.19338663,1.48757863 C3.59427745,3.05126386 5.01417034,4.4404752 6.66983503,5.5702238 C9.71228516,7.64640096 13.0714851,8.83185838 16.7207224,9.24481282 C17.3439536,9.31521649 17.6509832,9.27562813 17.5640487,8.47559973 C17.2223404,5.32490759 18.4316758,2.82850168 21.115535,1.19814132 C23.838385,-0.455394493 26.7172346,-0.42710143 29.2767765,1.46816827 C30.4903873,2.3672955 31.4625988,2.40600656 32.6793523,1.85739894 C33.4695825,1.50157894 34.2679616,1.16670458 35.291698,0.724068015 C34.665653,2.42326021 33.7392291,3.64271317 32.2315613,4.66407813 C33.6404549,4.67292428 34.7504314,4.07836786 35.9347718,3.85176747 L36,3.91913713 Z" id="Fill-1" fill="#ADADAD" mask="url(#mask-2)"></path>
            </g>
        </g>
    </g>
</svg>