<?xml version="1.0" encoding="UTF-8" standalone="no"?>
<svg width="107px" height="107px" viewBox="0 0 107 107" version="1.1" xmlns="http://www.w3.org/2000/svg" xmlns:xlink="http://www.w3.org/1999/xlink">
    <!-- Generator: Sketch 48.1 (47250) - http://www.bohemiancoding.com/sketch -->
    <title>云计算</title>
    <desc>Created with Sketch.</desc>
    <defs></defs>
    <g id="滴滴大脑" stroke="none" stroke-width="1" fill="none" fill-rule="evenodd" transform="translate(-688.000000, -3194.000000)">
        <g id="Group-9" transform="translate(538.000000, 3147.000000)" stroke="#333333">
            <g id="云计算" transform="translate(151.000000, 48.000000)">
                <g id="Oval-2" stroke-width="2">
                    <circle cx="52.5" cy="52.5" r="52.5"></circle>
                </g>
                <path d="M79.2054726,57.379536 C79.2054726,51.7195936 74.6172862,47.1309536 68.9568902,47.1309536 C67.9431895,47.1309536 66.9653198,47.2838025 66.0405164,47.5582047 C65.6168938,39.5229823 58.9867921,33.1328125 50.8463444,33.1328125 C42.4319481,33.1328125 35.6108988,39.9538618 35.6108988,48.3678046 C35.6108988,48.5655556 35.6331231,48.7574104 35.6408336,48.9528936 C30.9945919,49.5094085 27.390625,53.4576254 27.390625,58.253541 C27.390625,63.1506 31.1469871,67.1650363 35.9347388,67.5859375 L70.1719704,67.5496529 C75.2581628,66.9477823 79.2054726,62.6276483 79.2054726,57.379536 Z" id="Page-1" stroke-width="3"></path>
            </g>
        </g>
    </g>
</svg>