<?xml version="1.0" encoding="UTF-8" standalone="no"?>
<svg width="36px" height="29px" viewBox="0 0 36 29" version="1.1" xmlns="http://www.w3.org/2000/svg" xmlns:xlink="http://www.w3.org/1999/xlink">
    <!-- Generator: Sketch 47.1 (45422) - http://www.bohemiancoding.com/sketch -->
    <title>Fill 1</title>
    <desc>Created with Sketch.</desc>
    <defs></defs>
    <g id="客服" stroke="none" stroke-width="1" fill="none" fill-rule="evenodd">
        <g id="人才招聘-copy-2" transform="translate(-1317.000000, -2063.000000)" fill="#ACACAC">
            <path d="M1343.66086,2076.82822 C1342.26152,2076.55985 1342.94231,2075.81552 1342.94231,2075.81552 C1342.94231,2075.81552 1344.31173,2073.58515 1342.67139,2071.96343 C1340.63665,2069.95482 1335.69316,2072.21877 1335.69316,2072.21877 C1333.80537,2072.79744 1334.30654,2071.95487 1334.57323,2070.52062 C1334.57323,2068.83157 1333.987,2065.97172 1328.95751,2067.66077 C1323.93385,2069.35905 1319.61914,2075.30902 1319.61914,2075.30902 C1316.6194,2079.26216 1317.01752,2082.31815 1317.01752,2082.31815 C1317.76669,2089.06383 1325.02437,2090.91528 1330.66894,2091.35406 C1336.60679,2091.81407 1344.62274,2089.33203 1347.05219,2084.23317 C1349.48342,2079.12643 1345.06621,2077.10495 1343.66086,2076.82822 Z M1331.10863,2089.45177 C1325.21239,2089.72379 1320.44675,2086.80408 1320.44675,2082.91825 C1320.44675,2079.02864 1325.21239,2075.90912 1331.10863,2075.64089 C1337.00758,2075.37255 1341.7823,2077.77292 1341.7823,2081.65493 C1341.7823,2085.54021 1337.00706,2089.18722 1331.10863,2089.45177 Z M1329.93156,2078.20299 C1324.00265,2078.88871 1324.68712,2084.37379 1324.68712,2084.37379 C1324.68712,2084.37379 1324.62682,2086.11052 1326.27732,2086.99533 C1329.74667,2088.85115 1333.31866,2087.72738 1335.12413,2085.42588 C1336.92956,2083.12278 1335.87101,2077.5223 1329.93156,2078.20299 Z M1328.43602,2085.90204 C1327.3299,2086.02965 1326.437,2085.39973 1326.437,2084.485 C1326.437,2083.57387 1327.22996,2082.62064 1328.33713,2082.50617 C1329.60876,2082.38643 1330.43762,2083.11061 1330.43762,2084.02538 C1330.43762,2084.93591 1329.53983,2085.7781 1328.43602,2085.90204 Z M1331.93204,2082.9609 C1331.55643,2083.23767 1331.09576,2083.19931 1330.89759,2082.86745 C1330.69131,2082.54411 1330.76877,2082.02474 1331.14764,2081.75221 C1331.58625,2081.42901 1332.04366,2081.52246 1332.24197,2081.84622 C1332.44067,2082.17756 1332.2986,2082.67564 1331.93204,2082.9609 Z M1346.54898,2074.45345 C1347.0266,2074.45345 1347.43321,2074.10396 1347.50107,2073.64868 C1347.50964,2073.61507 1347.51397,2073.58515 1347.51397,2073.54669 C1348.23849,2067.11623 1342.17823,2068.22294 1342.17823,2068.22294 C1341.64062,2068.22294 1341.21001,2068.65319 1341.21001,2069.18906 C1341.21001,2069.71641 1341.64062,2070.14662 1342.17823,2070.14662 C1346.53178,2069.19759 1345.57116,2073.49602 1345.57116,2073.49602 C1345.57116,2074.02757 1346.00866,2074.45345 1346.54898,2074.45345 Z M1345.84315,2063.22894 C1343.74689,2062.74425 1341.59307,2063.16215 1340.98933,2063.27648 C1340.94276,2063.28068 1340.899,2063.32403 1340.8558,2063.33256 C1340.83548,2063.33689 1340.82261,2063.35829 1340.82261,2063.35829 C1340.22633,2063.52436 1339.7918,2064.06839 1339.7918,2064.71128 C1339.7918,2065.47742 1340.4203,2066.108 1341.20582,2066.108 C1341.20582,2066.108 1341.96705,2066.00695 1342.48487,2065.80714 C1342.99838,2065.60299 1347.3365,2065.6549 1349.49306,2069.22971 C1350.66743,2071.83838 1350.00914,2073.58463 1349.92745,2073.86513 C1349.92745,2073.86513 1349.64747,2074.54326 1349.64747,2075.21015 C1349.64747,2075.98118 1350.27583,2076.46476 1351.05483,2076.46476 C1351.70715,2076.46476 1352.25385,2076.37727 1352.41408,2075.28925 L1352.42261,2075.28925 C1354.73736,2067.67204 1349.59192,2064.0929 1345.84315,2063.22894 Z" id="Fill-1"></path>
        </g>
    </g>
</svg>