<svg xmlns="http://www.w3.org/2000/svg" xmlns:xlink="http://www.w3.org/1999/xlink" width="66" height="66" viewBox="0 0 66 66">
    <defs>
        <path id="a" d="M0 0h22v2H0z"/>
    </defs>
    <g fill="none" fill-rule="evenodd">
        <circle cx="33" cy="33" r="32" stroke="#CFCFCF" stroke-width="2"/>
        <path fill="#CFCFCF" stroke="#CFCFCF" stroke-width=".5" d="M26.333 31.693c.002-.002.002-.005.005-.005h3.995v-8.292c0-.005.003-.01.005-.012h5.326c.003.002.003.007.003.012v8.29h3.995c.003 0 .003.002.005.005v.007L33 38.616l-6.667-6.92v-.003zm5.724 7.902c.26.269.603.405.943.405.34 0 .683-.136.943-.405l6.667-6.919c.38-.395.495-.995.288-1.514-.207-.517-.693-.86-1.231-.86H37v-6.906c0-.764-.598-1.396-1.333-1.396h-5.334c-.736 0-1.333.632-1.333 1.396v6.906h-2.667c-.54 0-1.026.343-1.231.86a1.43 1.43 0 0 0 .288 1.512l6.667 6.92z"/>
        <g transform="translate(22 41)">
            <mask id="b" fill="#fff">
                <use xlink:href="#a"/>
            </mask>
            <path fill="#CFCFCF" d="M21.312 0H.687C.307 0 0 .446 0 1s.307 1 .687 1h20.625c.381 0 .688-.446.688-1s-.307-1-.688-1" mask="url(#b)"/>
        </g>
    </g>
</svg>
