<?xml version="1.0" encoding="UTF-8" standalone="no"?>
<svg width="47px" height="40px" viewBox="0 0 47 40" version="1.1" xmlns="http://www.w3.org/2000/svg" xmlns:xlink="http://www.w3.org/1999/xlink">
    <!-- Generator: Sketch 46.2 (44496) - http://www.bohemiancoding.com/sketch -->
    <title>搜索 (2)</title>
    <desc>Created with Sketch.</desc>
    <defs></defs>
    <g id="Page-1" stroke="none" stroke-width="1" fill="none" fill-rule="evenodd">
        <g id="搜索" transform="translate(-540.000000, -478.000000)" fill-rule="nonzero" fill="#313131">
            <g id="搜索-(2)" transform="translate(540.000000, 478.000000)">
                <path d="M3.21772709,23.2879621 C1.26988216,14.1771186 6.79718175,5.22984504 15.5618023,3.30108327 C24.3264228,1.3736846 33.0106215,7.19404692 34.9571033,16.3048904 C36.9063113,25.4157339 31.3817379,34.3643706 22.6157543,36.2931323 C13.8497707,38.219168 5.16693506,32.3974425 3.21772709,23.2879621 L3.21772709,23.2879621 Z M34.0152133,32.2856698 L44.3064862,39.1828673 L46.2038971,36.1091162 L35.9535166,29.2364542 C38.0063189,25.2439856 38.7437465,20.4895538 37.7187085,15.6983187 C35.431456,5.00493641 25.238325,-1.83092238 14.9484151,0.433157684 C4.6585053,2.69587465 -1.82840439,13.1984254 0.458848069,23.8931708 C2.74610053,34.5892792 12.9392315,41.4237749 23.2291414,39.1596949 C27.6632488,38.1850909 31.3912795,35.6770191 34.0152133,32.2856698 L34.0152133,32.2856698 Z" id="Shape"></path>
            </g>
        </g>
    </g>
</svg>